%FSLAX25Y25*%
%MOIN*%
G70*
G01*
G75*
%ADD10R,0.06000X0.05000*%
%ADD11O,0.03937X0.01693*%
%ADD12R,0.11811X0.05906*%
%ADD13R,0.11811X0.03937*%
%ADD14R,0.03150X0.02362*%
%ADD15R,0.02362X0.03150*%
%ADD16C,0.01000*%
%ADD17C,0.03937*%
%ADD18C,0.23622*%
%ADD19C,0.00394*%
%ADD20C,0.00300*%
D16*
X92520Y23701D02*
X118020D01*
X92520D02*
Y63201D01*
X93020Y63701D01*
X118020D01*
Y23701D02*
Y63701D01*
D19*
X50732Y33957D02*
G03*
X48205Y33957I-1264J0D01*
G01*
X48181D02*
Y45177D01*
X50756D01*
Y33957D02*
Y45177D01*
X20472Y46850D02*
Y44882D01*
X21784D01*
X46461Y45295D02*
X45806D01*
X46134D01*
Y43655D01*
X45806Y43327D01*
X45478D01*
X45150Y43655D01*
X57480Y54331D02*
Y56299D01*
X58464D01*
X58792Y55971D01*
Y55315D01*
X58464Y54987D01*
X57480D01*
X58136D02*
X58792Y54331D01*
X59448D02*
X60104D01*
X59776D01*
Y56299D01*
X59448Y55971D01*
X76509Y54396D02*
X76181Y54724D01*
X75525D01*
X75197Y54396D01*
Y53084D01*
X75525Y52756D01*
X76181D01*
X76509Y53084D01*
X59055Y29921D02*
Y31889D01*
X60039D01*
X60367Y31561D01*
Y30905D01*
X60039Y30577D01*
X59055D01*
X59711D02*
X60367Y29921D01*
X62335D02*
X61023D01*
X62335Y31233D01*
Y31561D01*
X62007Y31889D01*
X61351D01*
X61023Y31561D01*
X70866Y29528D02*
Y31495D01*
X71850D01*
X72178Y31168D01*
Y30512D01*
X71850Y30184D01*
X70866D01*
X71522D02*
X72178Y29528D01*
X72834Y31168D02*
X73162Y31495D01*
X73818D01*
X74146Y31168D01*
Y30839D01*
X73818Y30512D01*
X73490D01*
X73818D01*
X74146Y30184D01*
Y29855D01*
X73818Y29528D01*
X73162D01*
X72834Y29855D01*
D20*
X31653Y48870D02*
Y54670D01*
X24253Y36070D02*
X31653D01*
Y41870D01*
X24253Y54670D02*
X31653D01*
X24253Y48870D02*
Y54670D01*
Y36070D02*
Y41870D01*
X72835Y55905D02*
Y58661D01*
X68898Y55905D02*
Y58661D01*
X72835D01*
X68898Y49213D02*
X72835D01*
Y51968D01*
X68898Y49213D02*
Y51968D01*
X62598Y41339D02*
Y44094D01*
X58661Y41339D02*
Y44094D01*
X62598D01*
X58661Y34646D02*
X62598D01*
Y37402D01*
X58661Y34646D02*
Y37402D01*
X73622Y33976D02*
X76378D01*
X73622Y37913D02*
X76378D01*
Y33976D02*
Y37913D01*
X66929Y33976D02*
Y37913D01*
Y33976D02*
X69685D01*
X66929Y37913D02*
X69685D01*
X54331Y52756D02*
X57087D01*
X54331Y48819D02*
X57087D01*
X54331D02*
Y52756D01*
X63779Y48819D02*
Y52756D01*
X61024D02*
X63779D01*
X61024Y48819D02*
X63779D01*
M02*
