%FSLAX25Y25*%
%MOIN*%
G70*
G01*
G75*
G04 Layer_Physical_Order=1*
G04 Layer_Color=255*
%ADD10R,0.06000X0.05000*%
%ADD11O,0.03937X0.01693*%
%ADD12R,0.11811X0.05906*%
%ADD13R,0.11811X0.03937*%
%ADD14R,0.03150X0.02362*%
%ADD15R,0.02362X0.03150*%
%ADD16C,0.01000*%
%ADD17C,0.03937*%
%ADD18C,0.23622*%
G36*
X120621Y64370D02*
X120621D01*
X119291D01*
X119229Y64370D01*
X119229Y64370D01*
X119229Y64370D01*
X112705D01*
Y60236D01*
Y56102D01*
X119229D01*
X119229Y56102D01*
X119229Y56102D01*
X119291Y56102D01*
X120621Y54772D01*
Y31299D01*
X120621D01*
X119291D01*
X119229Y31299D01*
X119229Y31299D01*
X119229Y31299D01*
X112705D01*
Y27165D01*
Y23031D01*
X119229D01*
X119229Y23031D01*
X119229Y23031D01*
X119291Y23031D01*
X120621Y21701D01*
Y1820D01*
X23901D01*
X23517Y3750D01*
X23723Y3836D01*
X27842Y13780D01*
X23723Y23723D01*
X13780Y27842D01*
X3836Y23723D01*
X3750Y23517D01*
X1820Y23901D01*
Y62713D01*
X3750Y63097D01*
X3836Y62891D01*
X13780Y58772D01*
X23723Y62891D01*
X27842Y72835D01*
X23723Y82778D01*
X23517Y82864D01*
X23901Y84795D01*
X120621D01*
Y64370D01*
D02*
G37*
%LPC*%
G36*
X52650Y42807D02*
X50040D01*
X50476Y41755D01*
X52028Y41113D01*
X52650D01*
Y42807D01*
D02*
G37*
G36*
X63386Y44882D02*
X61130D01*
Y43020D01*
X63386D01*
Y44882D01*
D02*
G37*
G36*
X52650Y45502D02*
X52028D01*
X50476Y44859D01*
X50040Y43807D01*
X52650D01*
Y45502D01*
D02*
G37*
G36*
X111705Y26665D02*
X105118D01*
Y23031D01*
X111705D01*
Y26665D01*
D02*
G37*
G36*
Y31299D02*
X105118D01*
Y27665D01*
X111705D01*
Y31299D01*
D02*
G37*
G36*
X32134Y43051D02*
X23772D01*
Y35689D01*
X32134D01*
Y37551D01*
X44235D01*
X44665Y37372D01*
X46909D01*
X48273Y37937D01*
Y37937D01*
X48273D01*
X48273D01*
Y37937D01*
X48295Y37946D01*
X48461Y38015D01*
X49104Y39567D01*
D01*
X49104Y39567D01*
X48461Y41119D01*
X48295Y41188D01*
X48273Y41197D01*
X48273Y41197D01*
D01*
X48273D01*
Y41197D01*
X46909Y41762D01*
X44665D01*
X43285Y41190D01*
X32134D01*
Y43051D01*
D02*
G37*
G36*
X92020Y54724D02*
X85433D01*
Y52075D01*
X92020D01*
Y54724D01*
D02*
G37*
G36*
X70366Y59449D02*
X68110D01*
Y57587D01*
X70366D01*
Y59449D01*
D02*
G37*
G36*
X73622D02*
X71366D01*
Y57587D01*
X73622D01*
Y59449D01*
D02*
G37*
G36*
X111705Y64370D02*
X105118D01*
Y60736D01*
X111705D01*
Y64370D01*
D02*
G37*
G36*
X99606Y54724D02*
X93020D01*
Y52075D01*
X99606D01*
Y54724D01*
D02*
G37*
G36*
X73622Y56587D02*
X68110D01*
Y54724D01*
X68110Y54724D01*
X68110Y53150D01*
D01*
X68110Y52639D01*
X64567D01*
Y53543D01*
X59842D01*
D01*
D01*
X59842Y53543D01*
X58268D01*
Y53543D01*
X53543D01*
Y52639D01*
X32134D01*
Y55051D01*
X23772D01*
Y47689D01*
X32134D01*
Y48999D01*
X53543D01*
Y48031D01*
X58268D01*
Y48031D01*
X58268D01*
X58268Y48031D01*
X59842D01*
Y48031D01*
X64567D01*
Y48999D01*
X68110D01*
Y48425D01*
X70655D01*
X76666Y42414D01*
X77953Y41881D01*
X85433D01*
X85433Y40551D01*
X85433D01*
X85433Y38976D01*
D01*
X85433Y37764D01*
X77165D01*
Y38701D01*
X72441D01*
D01*
D01*
X72441Y38701D01*
X70866D01*
Y38701D01*
X66142D01*
Y37639D01*
X63386D01*
X63386Y38583D01*
D01*
Y40157D01*
X63386D01*
Y42020D01*
X60630D01*
Y42520D01*
X60130D01*
Y44882D01*
X57874D01*
Y44882D01*
X57586Y44559D01*
X55823Y44859D01*
D01*
X55635Y44937D01*
X55635Y44937D01*
Y44937D01*
X54272Y45502D01*
X53650D01*
Y43307D01*
Y41113D01*
X54272D01*
X55635Y41677D01*
Y41677D01*
X55635D01*
X55635D01*
Y41677D01*
X55657Y41686D01*
X55823Y41755D01*
X55943Y42045D01*
X56205Y41993D01*
Y41993D01*
X57376Y41760D01*
Y41760D01*
X57874Y41661D01*
Y40157D01*
X57874Y40157D01*
X57874Y38583D01*
D01*
X57874Y37639D01*
X55196D01*
X54272Y38021D01*
X52028D01*
X50476Y37379D01*
X49833Y35827D01*
X50476Y34275D01*
X52028Y33632D01*
X54272D01*
X55158Y33999D01*
X57874D01*
Y33858D01*
X63386D01*
Y33999D01*
X66142D01*
Y33189D01*
X70866D01*
Y33189D01*
X70866D01*
X70866Y33189D01*
X72441D01*
Y33189D01*
X77165D01*
Y34125D01*
X85433D01*
Y32677D01*
X99606D01*
Y38976D01*
D01*
Y38976D01*
X99606Y38976D01*
Y40551D01*
X99606D01*
Y46850D01*
D01*
Y46850D01*
X99606Y46850D01*
Y48425D01*
X99606D01*
Y51075D01*
X85433D01*
Y48425D01*
X85433Y48425D01*
X85433Y46850D01*
D01*
X85433Y45520D01*
X78707D01*
X73622Y50605D01*
Y53150D01*
D01*
Y53150D01*
X73622Y53150D01*
Y54724D01*
X73622D01*
Y56587D01*
D02*
G37*
G36*
X111705Y59736D02*
X105118D01*
Y56102D01*
X111705D01*
Y59736D01*
D02*
G37*
%LPD*%
D10*
X27953Y51370D02*
D03*
Y39370D02*
D03*
D11*
X45787Y39567D02*
D03*
X53150Y43307D02*
D03*
Y35827D02*
D03*
D12*
X112205Y27165D02*
D03*
Y60236D02*
D03*
D13*
X92520Y51575D02*
D03*
Y35827D02*
D03*
Y43701D02*
D03*
Y51575D02*
D03*
D14*
X70866Y57087D02*
D03*
Y50787D02*
D03*
X60630Y42520D02*
D03*
Y36220D02*
D03*
D15*
X74803Y35945D02*
D03*
X68504D02*
D03*
X55905Y50787D02*
D03*
X62205D02*
D03*
D16*
X27953Y39370D02*
X45590D01*
X27953Y51370D02*
X28504Y50819D01*
X55905D01*
X53921Y35819D02*
X68504D01*
X74803Y35945D02*
X93921D01*
X77953Y43701D02*
X92520D01*
X70866Y50787D02*
X77953Y43701D01*
X62205Y50819D02*
X70835D01*
D17*
X7516Y79098D02*
D03*
X20043D02*
D03*
X13780Y81693D02*
D03*
X4921Y72835D02*
D03*
X7516Y66571D02*
D03*
X13780Y63976D02*
D03*
X20043Y66571D02*
D03*
X22638Y72835D02*
D03*
X7516Y20043D02*
D03*
X20043D02*
D03*
X13780Y22638D02*
D03*
X4921Y13780D02*
D03*
X7516Y7516D02*
D03*
X13780Y4921D02*
D03*
X20043Y7516D02*
D03*
X22638Y13780D02*
D03*
D18*
X13780Y72835D02*
D03*
Y13780D02*
D03*
M02*
